# xmcd
# Track frame offsets:
# 150
# 6905
# 18812
# 29065
# 43332
# 52262
# 61855
# 74200
# 86987
# 97195
# 106370
# 115602
# 125815
# 135270
#
# Disc length: 1965 seconds
# Revision: 0
# Processed by: cddbd v1.4PL0 Copyright (c) Steve Scherf et al.
# Submitted via: VisiTrax 2.9.5.180 - For more info visit www.synapsa.com
#
DISCID=d107ab0e
DTITLE=Lee, Peggy - Gone With The Wind
DYEAR=2001
DGENRE=Jazz
TTITLE0=You Can Depend on Me
TTITLE1=Sugar (That Sugar Baby of Mine)
TTITLE2=Someday, Sweetheart
TTITLE3=September in the Rain (Dubin/Warren)
TTITLE4=Gone With the Wind
TTITLE5=Let There Be Love (Grant/Rand)
TTITLE6=I've Got a Right to Sing the Blues
TTITLE7=Oh What a Beautiful Morning
TTITLE8=What Is This Thing Called Love? (Porter)
TTITLE9=Love Is Just Around the Corner
TTITLE10=Did I Do
TTITLE11=Just One of Those Things
TTITLE12=You
TTITLE13=I've Got the World on a String (Arlen/Koehler)
EXTD=
EXTT0=
EXTT1=
EXTT2=
EXTT3=
EXTT4=
EXTT5=
EXTT6=
EXTT7=
EXTT8=
EXTT9=
EXTT10=
EXTT11=
EXTT12=
EXTT13=
PLAYORDER=
